<?xml version="1.0" encoding="utf-8"?>
<!-- Generator: Adobe Illustrator 18.1.1, SVG Export Plug-In . SVG Version: 6.00 Build 0)  -->
<svg version="1.1" id="Layer_1" xmlns="http://www.w3.org/2000/svg" xmlns:xlink="http://www.w3.org/1999/xlink" x="0px" y="0px"
	 viewBox="64.3 0 1825.3 229.7" enable-background="new 64.3 0 1825.3 229.7" xml:space="preserve">
<g>
	<polygon fill="#D23214" points="475.9,5.6 417.5,5.6 417.5,87.3 475.9,28.9 	"/>
	<path fill="#D23214" d="M344.7,137.9V5.6h-57.8v132.9c0,25.6,7.2,45.1,20.6,59.5l41.2-41.2C345.8,151.3,344.7,145.2,344.7,137.9z"
		/>
	<polygon fill="#D23214" points="498.7,5.6 498.7,6.7 499.3,5.6 	"/>
	<path fill="#D23214" d="M905.3,113.5c0-32.8-12.8-60.6-32.8-80.6l-37.8,37.8l0,0c11.1,10.6,16.1,25.6,16.1,42.8
		c0,33.4-21.1,59-59,59l0,0l0,0c-18.4,0-32.8-6.7-43.4-16.1l0,0l-37.3,37.3c21.1,21.1,49.5,33.4,81.2,33.4
		C852.5,226.9,905.3,180.2,905.3,113.5z"/>
	<path fill="#142355" d="M732.9,113.5c0-33.4,21.1-59,59-59l0,0l0,0c18.4,0,32.8,6.1,42.8,16.1l37.8-37.8l0,0
		C851.4,12.2,823,0.6,791.8,0.6c-60.6,0-113.5,46.7-113.5,113.5c0,32.8,12.2,60.6,32.3,80.6l0,0l37.8-37.8
		C738.4,145.7,732.9,130.1,732.9,113.5z"/>
	<path fill="#142355" d="M380.8,226.4c54.5,0,95.1-28.9,95.1-87.9V28.9l-57.8,58.4v50.6c0,25-11.7,38.9-36.2,38.9
		c-17.2,0-28.4-7.2-33.4-20L307.4,198C323.5,216.9,350.2,226.4,380.8,226.4z"/>
	<polygon fill="#142355" points="615,221.9 615,54.5 672.3,54.5 672.3,5.6 499.3,5.6 498.7,6.7 498.7,54.5 556,54.5 556,221.9 	"/>
	<polygon fill="#D23214" points="1188.4,5.6 1130.6,5.6 1130.6,221.4 1188.4,163 	"/>
	<polygon fill="#D23214" points="1216.2,5.6 1216.2,54.5 1274.6,54.5 1274.6,77.3 1346.4,5.6 	"/>
	<path fill="#D23214" d="M220.6,221.9h60.1L176.1,1.7c-1.1-2.2-2.8-2.2-3.9,0L67.1,221.9h57.3l6.7-15h83.4L220.6,221.9z
		 M171.1,110.7l22.8,52.3h-45.6L171.1,110.7z"/>
	<path fill="#D23214" d="M1048.2,5.6l-42.8,100.7L961.5,5.6h-62.3l102.3,220.2c1.1,2.2,2.8,2.2,3.9,0L1108.3,5.6
		C1108.3,5.6,1048.2,5.6,1048.2,5.6z"/>
	<path fill="none" d="M1577.2,90.1c0-21.1-9.5-35.6-35.6-35.6h-21.1v73.4h21.1C1567.7,127.9,1577.2,111.8,1577.2,90.1z"/>
	<path fill="#142355" d="M1433.7,194.7c0-18.9-16.1-31.7-32.8-31.7c-17.2,0-32.8,12.8-32.8,31.7s15.6,31.7,32.8,31.7
		C1418.1,226.9,1433.7,214.1,1433.7,194.7z"/>
	<path fill="#142355" d="M1519.9,172.4h21.1l32.3,48.9h62.8l-39.5-59.5c25.6-13.9,39.5-39.5,39.5-70.6c0-48.9-33.4-85.7-91.8-85.7
		h-82.9v216.4h58.4L1519.9,172.4L1519.9,172.4z M1519.9,54.5h21.1c26.1,0,35.6,15,35.6,35.6c0,21.1-9.5,37.8-35.6,37.8h-21.1V54.5z"
		/>
	<polygon fill="#142355" points="1390.9,5.6 1345.8,5.6 1274.6,76.8 1274.6,221.9 1332.5,221.9 1332.5,54.5 1390.9,54.5 	"/>
	<polygon fill="#142355" points="1188.4,162.4 1130.6,220.8 1130.6,221.9 1188.4,221.9 	"/>
	<path fill="#D23214" d="M1884.7,113.5c0-32.8-12.8-60.6-32.8-80.6l-37.8,37.8l0,0c11.1,10.6,16.1,25.6,16.1,42.8
		c0,33.4-21.1,59-59,59l0,0l0,0c-18.4,0-32.8-6.7-43.4-16.1l0,0l-37.8,37.8c21.1,21.1,49.5,33.4,81.2,33.4
		C1831.9,226.9,1884.7,180.2,1884.7,113.5z"/>
	<path fill="#142355" d="M1712.3,113.5c0-33.4,21.1-59,59-59l0,0l0,0c18.4,0,32.8,6.1,42.8,16.1l37.8-37.8l0,0
		c-21.1-20.6-49.5-32.3-80.6-32.3c-60.6,0-113.5,46.7-113.5,113.5c0,32.8,12.2,60.6,32.3,80.6l0,0l37.8-37.8
		C1717.9,145.7,1712.3,130.1,1712.3,113.5z"/>
</g>
</svg>
